HIERARCHY
ROOT Hips
{
	OFFSET 0.00000 0.00000 0.00000
	CHANNELS 6 Xposition Yposition Zposition Zrotation Yrotation Xrotation 
	JOINT LHipJoint
	{
		OFFSET 0 0 0
		CHANNELS 3 Zrotation Yrotation Xrotation
		JOINT LeftHip
		{
			OFFSET 1.58895 -1.83665 0.71753
			CHANNELS 3 Zrotation Yrotation Xrotation
			JOINT LeftKnee
			{
				OFFSET 2.50528 -6.88321 0.00000
				CHANNELS 3 Zrotation Yrotation Xrotation
				JOINT LeftAnkle
				{
					OFFSET 2.63244 -7.23257 0.00000
					CHANNELS 3 Zrotation Yrotation Xrotation
					JOINT LeftToe
					{
						OFFSET 0.23691 -0.65090 1.72750
						CHANNELS 3 Zrotation Yrotation Xrotation
						End Site
						{
							OFFSET 0.00000 -0.00000 0.92561
						}
					}
				}
			}
		}
	}
	JOINT RHipJoint
	{
		OFFSET 0 0 0
		CHANNELS 3 Zrotation Yrotation Xrotation
		JOINT RightHip
		{
			OFFSET -1.51435 -1.83665 0.71753
			CHANNELS 3 Zrotation Yrotation Xrotation
			JOINT RightKnee
			{
				OFFSET -2.54551 -6.99375 0.00000
				CHANNELS 3 Zrotation Yrotation Xrotation
				JOINT RightAnkle
				{
					OFFSET -2.66027 -7.30903 0.00000
					CHANNELS 3 Zrotation Yrotation Xrotation
					JOINT RightToe
					{
						OFFSET -0.22981 -0.63138 2.03959
						CHANNELS 3 Zrotation Yrotation Xrotation
						End Site
						{
							OFFSET -0.00000 -0.00000 1.07060
						}
					}
				}
			}
		}
	}
	JOINT lowerback
	{
		OFFSET 0 0 0
		CHANNELS 3 Zrotation Yrotation Xrotation
		JOINT Chest
		{
			OFFSET -0.02651 1.86275 -0.11152
			CHANNELS 3 Zrotation Yrotation Xrotation
			JOINT Chest2
			{
				OFFSET 0.01019 1.86224 0.04087
				CHANNELS 3 Zrotation Yrotation Xrotation
				JOINT lowerneck
				{
					OFFSET 0 0 0
					CHANNELS 3 Zrotation Yrotation Xrotation
					JOINT Neck
					{
						OFFSET -0.01926 1.80512 0.08867
						CHANNELS 3 Zrotation Yrotation Xrotation
						JOINT Head
						{
							OFFSET 0.05516 1.76451 -0.38475
							CHANNELS 3 Zrotation Yrotation Xrotation
							End Site
							{
								OFFSET 0.01592 1.82587 -0.14001
							}
						}
					}
				}
				JOINT LeftCollar
				{
					OFFSET 0 0 0
					CHANNELS 3 Zrotation Yrotation Xrotation
					JOINT LeftShoulder
					{
						OFFSET 3.47116 1.51376 0.14491
CHANNELS 3 Zrotation Xrotation Yrotation
						JOINT LeftElbow
						{
OFFSET 0 -4.780950 0.000000
CHANNELS 3 Zrotation Xrotation Yrotation
							JOINT LeftWrist
							{
OFFSET 0 -3.586150 -0.000000
CHANNELS 3 Zrotation Xrotation Yrotation
								JOINT lhand
								{
									OFFSET 0 0 0
CHANNELS 3 Zrotation Xrotation Yrotation
									JOINT LFingers
									{
OFFSET 0 -0.659810 0.000000
CHANNELS 3 Zrotation Xrotation Yrotation
										End Site
										{
OFFSET 0 -0.531960 0.000000
										}
									}
								}
								JOINT LThumb
								{
OFFSET 0 0.000000 0.000000
CHANNELS 3 Zrotation Xrotation Yrotation
									End Site
									{
OFFSET 0 -0.540080 0.540080
									}
								}
							}
						}
					}
				}
				JOINT RightCollar
				{
					OFFSET 0 0 0
					CHANNELS 3 Zrotation Yrotation Xrotation
					JOINT RightShoulder
					{
						OFFSET -3.31725 1.61216 0.35156
CHANNELS 3 Zrotation Xrotation Yrotation
						JOINT RightElbow
						{
OFFSET 0 -4.489130 0.000000
CHANNELS 3 Zrotation Xrotation Yrotation
							JOINT RightWrist
							{
OFFSET 0 -3.705100 0.000000
CHANNELS 3 Zrotation Xrotation Yrotation
								JOINT rhand
								{
									OFFSET 0 0 0
CHANNELS 3 Zrotation Xrotation Yrotation
									JOINT RFingers
									{
OFFSET 0 -0.449140 0.000000
CHANNELS 3 Zrotation Xrotation Yrotation
										End Site
										{
OFFSET 0 -0.362110 0.000000
										}
									}
								}
								JOINT RThumb
								{
OFFSET 0 0.000000 0.000000
CHANNELS 3 Zrotation Xrotation Yrotation
									End Site
									{
OFFSET 0 -0.367630 0.367630
									}
								}
							}
						}
					}
				}
			}
		}
	}
}
MOTION
Frames: 5
Frame Time: 0.008333333333333333
-0.738599 18.680922 3.919631 -0.854406 -2.482999 7.009725 0.000000 0.000000 0.000000 -12.231756 -6.636668 -15.379156 2.119971 9.111590 26.144978 1.162215 1.353452 -20.900410 8.561014 -16.516764 -54.559204 0.000000 0.000000 0.000000 14.624305 3.775151 -8.269346 -0.454019 -4.322540 11.986005 -0.826250 -3.026841 -18.522801 -0.197045 2.858032 -7.883891 -2.187827 1.409515 14.054276 0.228929 1.545861 2.534012 1.194239 0.794058 -5.262680 0.653878 -2.578028 -0.999613 3.263108 -3.338660 -4.257499 0.916286 -1.721122 -1.093931 0.000000 0.000000 0.000000 11.639425 18.610981 -35.584752 41.154772 -48.739395 19.302893 8.295729 -9.691279 29.917923 0.000000 0.000000 0.000000 -7.125000 0.000000 0.000000 -13.099561 0.481658 -13.343441 0.000000 0.000000 0.000000 -66.137186 -39.880361 14.576456 -152.948883 -38.227859 -110.469247 -8.813638 -32.476091 46.883455 0.000000 0.000000 0.000000 7.125000 0.000000 0.000000 49.865050 71.721750 -34.098694
-0.751930 18.682191 3.936258 -0.863157 -2.438600 6.986128 0.000000 0.000000 0.000000 -12.185637 -6.625589 -15.260228 2.114550 9.100754 26.110850 1.169586 1.295279 -20.941391 8.562065 -16.517491 -54.562887 0.000000 0.000000 0.000000 14.690543 3.807372 -8.124289 -0.451907 -4.312678 11.958065 -0.839559 -3.030989 -18.658981 -0.197712 2.862912 -7.897457 -2.295736 1.420264 13.872113 0.247198 1.549662 2.418504 1.275780 0.799410 -5.288195 0.561615 -2.598709 -1.111294 3.356659 -3.358113 -4.519826 0.962633 -1.733188 -1.154157 0.000000 0.000000 0.000000 11.644978 18.664940 -35.544632 41.109297 -48.713558 19.268701 8.222038 -9.577269 29.872804 0.000000 0.000000 0.000000 -7.125000 0.000000 0.000000 -13.139676 0.534394 -13.374131 0.000000 0.000000 0.000000 -66.528231 -39.979020 13.953685 -152.953938 -38.223062 -110.472374 -8.964701 -32.057612 46.697161 0.000000 0.000000 0.000000 7.125000 0.000000 0.000000 49.267895 71.663533 -33.577308
-0.775679 18.685189 3.959146 -0.867478 -2.426723 6.957514 0.000000 0.000000 0.000000 -12.117172 -6.451404 -15.124421 2.101943 9.075317 26.031184 1.174462 1.156949 -20.927464 8.579108 -16.529114 -54.622874 0.000000 0.000000 0.000000 14.789643 3.989722 -7.868476 -0.448417 -4.296307 11.911708 -0.864396 -3.097330 -18.944501 -0.192358 2.824548 -7.790785 -2.587834 1.454386 13.588877 0.300682 1.562525 2.333511 1.499107 0.811753 -5.232004 0.637710 -2.569417 -1.111166 3.276279 -3.310956 -4.913101 0.930599 -1.715010 -1.280845 0.000000 0.000000 0.000000 11.637722 18.726471 -35.463152 41.079049 -48.696340 19.245997 8.284032 -9.563687 29.819026 0.000000 0.000000 0.000000 -7.125000 0.000000 0.000000 -13.101709 0.579393 -13.322828 0.000000 0.000000 0.000000 -66.895858 -40.118430 13.390719 -152.949419 -38.227370 -110.469576 -9.392115 -31.508872 46.579986 0.000000 0.000000 0.000000 7.125000 0.000000 0.000000 48.595089 71.743026 -33.133294
-0.784939 18.685767 3.974418 -0.896054 -2.447061 6.928215 0.000000 0.000000 0.000000 -12.075873 -6.362447 -14.988572 2.084565 9.040057 25.920755 1.174411 1.152565 -20.925159 8.585512 -16.533467 -54.645451 0.000000 0.000000 0.000000 14.859901 4.005342 -7.733827 -0.444233 -4.276392 11.855472 -0.869755 -3.111638 -19.005602 -0.194828 2.842521 -7.840679 -2.647278 1.466961 13.445257 0.310905 1.574545 2.220054 1.542680 0.820528 -5.275158 0.730443 -2.536765 -1.124936 3.193109 -3.260198 -5.292088 0.894396 -1.694921 -1.401490 0.000000 0.000000 0.000000 11.623419 18.798656 -35.382241 41.061250 -48.686241 19.232624 8.428356 -9.674106 29.745413 0.000000 0.000000 0.000000 -7.125000 0.000000 0.000000 -13.015632 0.633902 -13.217781 0.000000 0.000000 0.000000 -67.214591 -40.233567 12.863254 -152.954847 -38.222197 -110.472946 -9.704546 -31.124691 46.510283 0.000000 0.000000 0.000000 7.125000 0.000000 0.000000 48.141268 71.810392 -32.847785
-0.788379 18.685150 3.987945 -0.923414 -2.423765 6.909033 0.000000 0.000000 0.000000 -12.050044 -6.356676 -14.861490 2.067384 9.005090 25.811154 1.171707 1.187839 -20.915730 8.591094 -16.537265 -54.664911 0.000000 0.000000 0.000000 14.911059 3.891816 -7.661826 -0.439228 -4.252468 11.787955 -0.866157 -3.093290 -18.959736 -0.200158 2.880839 -7.947145 -2.609407 1.464207 13.324739 0.309186 1.578786 2.088005 1.519436 0.824229 -5.347386 0.673369 -2.537596 -1.227116 3.262109 -3.254089 -5.519339 0.927008 -1.694016 -1.454217 0.000000 0.000000 0.000000 11.565523 18.859707 -35.272676 40.973083 -48.635912 19.166402 8.525714 -9.746107 29.775260 0.000000 0.000000 0.000000 -7.125000 0.000000 0.000000 -12.961240 0.593125 -13.168951 0.000000 0.000000 0.000000 -67.555175 -40.278702 12.345627 -152.989813 -38.188909 -110.494596 -9.704325 -31.001258 46.434094 0.000000 0.000000 0.000000 7.125000 0.000000 0.000000 47.954550 71.763490 -32.659248
